<svg width="149" height="176" viewBox="0 0 149 176" fill="none" xmlns="http://www.w3.org/2000/svg">
<path d="M1.99805 164.469V173H0.919922V164.469H1.99805ZM4.875 168.307V169.232H1.79297V168.307H4.875ZM5.36133 164.469V165.395H1.79297V164.469H5.36133ZM7.82227 164.469V173H6.74414V164.469H7.82227ZM15.2754 164.469V173H14.1914L10.7754 166.42V173H9.69727V164.469H10.7754L14.209 171.066V164.469H15.2754ZM20.8711 170.844C20.8711 170.645 20.8477 170.469 20.8008 170.316C20.7539 170.16 20.6719 170.02 20.5547 169.895C20.4375 169.77 20.2734 169.65 20.0625 169.537C19.8516 169.424 19.584 169.309 19.2598 169.191C18.9082 169.066 18.5898 168.928 18.3047 168.775C18.0195 168.619 17.7754 168.441 17.5723 168.242C17.373 168.043 17.2188 167.814 17.1094 167.557C17 167.299 16.9453 167.004 16.9453 166.672C16.9453 166.34 17.002 166.033 17.1152 165.752C17.2324 165.471 17.3965 165.227 17.6074 165.02C17.8223 164.809 18.0801 164.645 18.3809 164.527C18.6816 164.41 19.0176 164.352 19.3887 164.352C19.9434 164.352 20.4102 164.475 20.7891 164.721C21.1719 164.963 21.4609 165.281 21.6562 165.676C21.8516 166.066 21.9492 166.484 21.9492 166.93H20.8711C20.8711 166.609 20.8184 166.326 20.7129 166.08C20.6113 165.83 20.4512 165.635 20.2324 165.494C20.0176 165.35 19.7363 165.277 19.3887 165.277C19.0762 165.277 18.8184 165.338 18.6152 165.459C18.416 165.58 18.2676 165.744 18.1699 165.951C18.0762 166.158 18.0293 166.395 18.0293 166.66C18.0293 166.84 18.0605 167.004 18.123 167.152C18.1855 167.297 18.2812 167.432 18.4102 167.557C18.543 167.682 18.707 167.797 18.9023 167.902C19.1016 168.008 19.3359 168.109 19.6055 168.207C20.0234 168.344 20.3809 168.496 20.6777 168.664C20.9746 168.832 21.2168 169.021 21.4043 169.232C21.5918 169.439 21.7285 169.676 21.8145 169.941C21.9043 170.203 21.9492 170.5 21.9492 170.832C21.9492 171.18 21.8906 171.494 21.7734 171.775C21.6602 172.057 21.4941 172.297 21.2754 172.496C21.0566 172.695 20.793 172.85 20.4844 172.959C20.1758 173.064 19.8281 173.117 19.4414 173.117C19.1055 173.117 18.7754 173.062 18.4512 172.953C18.1309 172.844 17.8398 172.68 17.5781 172.461C17.3164 172.242 17.1074 171.973 16.9512 171.652C16.7949 171.328 16.7168 170.953 16.7168 170.527H17.7949C17.7949 170.82 17.8379 171.072 17.9238 171.283C18.0098 171.49 18.1289 171.662 18.2812 171.799C18.4336 171.936 18.6074 172.037 18.8027 172.104C19.002 172.166 19.2148 172.197 19.4414 172.197C19.7539 172.197 20.0156 172.143 20.2266 172.033C20.4414 171.924 20.6016 171.768 20.707 171.564C20.8164 171.361 20.8711 171.121 20.8711 170.844ZM25.2773 170.422L26.6426 164.469H27.4102L27.0059 166.783L25.5234 173H24.7559L25.2773 170.422ZM23.9297 164.469L24.9961 170.305L25.3125 173H24.5566L22.8574 164.469H23.9297ZM29.1504 170.299L30.1934 164.469H31.2656L29.5723 173H28.8164L29.1504 170.299ZM27.5332 164.469L28.8574 170.422L29.3672 173H28.5996L27.1816 166.783L26.7773 164.469H27.5332ZM37.0898 172.08V173H33.3867V172.08H37.0898ZM33.5801 164.469V173H32.502V164.469H33.5801ZM36.5918 168.137V169.057H33.3867V168.137H36.5918ZM37.0312 164.469V165.395H33.3867V164.469H37.0312ZM43.0547 172.08V173H39.3516V172.08H43.0547ZM39.5449 164.469V173H38.4668V164.469H39.5449ZM42.5566 168.137V169.057H39.3516V168.137H42.5566ZM42.9961 164.469V165.395H39.3516V164.469H42.9961ZM47.291 164.469V173H46.2246V164.469H47.291ZM49.5352 164.469V165.395H43.9863V164.469H49.5352ZM58.5059 170.053C58.4941 170.412 58.4473 170.773 58.3652 171.137C58.2871 171.496 58.168 171.826 58.0078 172.127C57.8477 172.428 57.6406 172.67 57.3867 172.854C57.1328 173.033 56.8223 173.123 56.4551 173.123C56.2207 173.123 56.0176 173.076 55.8457 172.982C55.6738 172.885 55.5352 172.746 55.4297 172.566C55.3242 172.387 55.25 172.17 55.207 171.916C55.168 171.662 55.1621 171.379 55.1895 171.066L55.4414 167.82H56.2559L55.998 171.066C55.9785 171.352 55.9824 171.584 56.0098 171.764C56.0371 171.943 56.0801 172.082 56.1387 172.18C56.1973 172.273 56.2637 172.338 56.3379 172.373C56.416 172.408 56.4961 172.426 56.5781 172.426C56.7656 172.426 56.9336 172.365 57.082 172.244C57.2305 172.119 57.3555 171.949 57.457 171.734C57.5625 171.516 57.6426 171.264 57.6973 170.979C57.7559 170.689 57.791 170.381 57.8027 170.053C57.8223 169.471 57.7988 168.936 57.7324 168.447C57.666 167.959 57.5547 167.525 57.3984 167.146C57.2422 166.768 57.0391 166.447 56.7891 166.186C56.5391 165.924 56.2402 165.725 55.8926 165.588C55.5488 165.451 55.1543 165.383 54.709 165.383C54.2988 165.383 53.9238 165.459 53.584 165.611C53.2441 165.76 52.9395 165.975 52.6699 166.256C52.4004 166.537 52.1699 166.875 51.9785 167.27C51.791 167.664 51.6426 168.109 51.5332 168.605C51.4277 169.098 51.3652 169.629 51.3457 170.199C51.3223 170.785 51.3477 171.324 51.4219 171.816C51.4961 172.305 51.6152 172.74 51.7793 173.123C51.9473 173.51 52.1562 173.836 52.4062 174.102C52.6562 174.371 52.9473 174.574 53.2793 174.711C53.6152 174.852 53.9863 174.922 54.3926 174.922C54.6816 174.922 54.9746 174.881 55.2715 174.799C55.5684 174.717 55.8184 174.605 56.0215 174.465L56.2207 175.133C55.9863 175.309 55.6973 175.439 55.3535 175.525C55.0098 175.611 54.6836 175.654 54.375 175.654C53.875 175.654 53.418 175.572 53.0039 175.408C52.5938 175.248 52.2305 175.012 51.9141 174.699C51.6016 174.391 51.3398 174.014 51.1289 173.568C50.918 173.127 50.7617 172.623 50.6602 172.057C50.5625 171.49 50.5254 170.871 50.5488 170.199C50.5723 169.559 50.6523 168.955 50.7891 168.389C50.9297 167.822 51.1191 167.309 51.3574 166.848C51.5996 166.387 51.8887 165.99 52.2246 165.658C52.5605 165.322 52.9375 165.064 53.3555 164.885C53.7773 164.705 54.2344 164.615 54.7266 164.615C55.2266 164.615 55.6797 164.697 56.0859 164.861C56.4922 165.025 56.8516 165.262 57.1641 165.57C57.4766 165.879 57.7363 166.256 57.9434 166.701C58.1504 167.146 58.3008 167.65 58.3945 168.213C58.4922 168.775 58.5293 169.389 58.5059 170.053ZM53.5547 170.551C53.5352 170.824 53.5352 171.068 53.5547 171.283C53.5781 171.498 53.6211 171.68 53.6836 171.828C53.7461 171.977 53.8281 172.09 53.9297 172.168C54.0312 172.242 54.1484 172.279 54.2812 172.279C54.3672 172.279 54.457 172.252 54.5508 172.197C54.6445 172.139 54.7383 172.049 54.832 171.928C54.9258 171.807 55.0117 171.648 55.0898 171.453C55.168 171.258 55.2324 171.023 55.2832 170.75L55.6406 171.172C55.5664 171.492 55.4688 171.773 55.3477 172.016C55.2305 172.258 55.0977 172.461 54.9492 172.625C54.8047 172.789 54.6523 172.914 54.4922 173C54.332 173.082 54.1719 173.123 54.0117 173.123C53.7656 173.123 53.5527 173.062 53.373 172.941C53.1934 172.816 53.0449 172.641 52.9277 172.414C52.8145 172.188 52.7363 171.918 52.6934 171.605C52.6504 171.289 52.6445 170.938 52.6758 170.551C52.707 170.141 52.7676 169.762 52.8574 169.414C52.9512 169.066 53.0664 168.756 53.2031 168.482C53.3398 168.209 53.4941 167.977 53.666 167.785C53.8379 167.594 54.0195 167.449 54.2109 167.352C54.4023 167.25 54.5977 167.199 54.7969 167.199C55.1641 167.199 55.4512 167.262 55.6582 167.387C55.8652 167.508 56.0645 167.652 56.2559 167.82L55.8047 168.4C55.707 168.291 55.582 168.189 55.4297 168.096C55.2812 168.002 55.1035 167.955 54.8965 167.955C54.7246 167.955 54.5625 168.01 54.4102 168.119C54.2617 168.229 54.1289 168.393 54.0117 168.611C53.8945 168.83 53.7969 169.102 53.7188 169.426C53.6406 169.746 53.5859 170.121 53.5547 170.551ZM64.6172 172.08V173H60.9141V172.08H64.6172ZM61.1074 164.469V173H60.0293V164.469H61.1074ZM64.1191 168.137V169.057H60.9141V168.137H64.1191ZM64.5586 164.469V165.395H60.9141V164.469H64.5586ZM66.7793 164.469L68.3965 167.738L70.002 164.469H71.2559L69.0352 168.693L71.3027 173H70.0371L68.3965 169.666L66.75 173H65.4785L67.752 168.693L65.5254 164.469H66.7793ZM75.3809 165.225L73.0488 173H71.9473L74.6953 164.469H75.3867L75.3809 165.225ZM77.2676 173L74.9355 165.225L74.9238 164.469H75.6211L78.3691 173H77.2676ZM77.2676 169.842V170.768H73.1543V169.842H77.2676ZM79.8809 164.469H80.9238L83.1562 171.424L85.3828 164.469H86.4258L83.5605 173H82.7402L79.8809 164.469ZM79.541 164.469H80.4551L80.6133 169.672V173H79.541V164.469ZM85.8457 164.469H86.7598V173H85.6875V169.672L85.8457 164.469ZM91.3301 169.654H89.4668V168.734H91.3301C91.6816 168.734 91.9648 168.664 92.1797 168.523C92.3984 168.383 92.5566 168.188 92.6543 167.938C92.7559 167.688 92.8066 167.402 92.8066 167.082C92.8066 166.789 92.7559 166.514 92.6543 166.256C92.5566 165.998 92.3984 165.791 92.1797 165.635C91.9648 165.475 91.6816 165.395 91.3301 165.395H89.6895V173H88.6113V164.469H91.3301C91.8809 164.469 92.3457 164.58 92.7246 164.803C93.1035 165.025 93.3906 165.334 93.5859 165.729C93.7852 166.119 93.8848 166.566 93.8848 167.07C93.8848 167.617 93.7852 168.084 93.5859 168.471C93.3906 168.857 93.1035 169.152 92.7246 169.355C92.3457 169.555 91.8809 169.654 91.3301 169.654ZM99.6914 172.08V173H96.1523V172.08H99.6914ZM96.3457 164.469V173H95.2676V164.469H96.3457ZM105.562 172.08V173H101.859V172.08H105.562ZM102.053 164.469V173H100.975V164.469H102.053ZM105.064 168.137V169.057H101.859V168.137H105.064ZM105.504 164.469V165.395H101.859V164.469H105.504ZM106.863 172.426C106.863 172.242 106.92 172.088 107.033 171.963C107.15 171.834 107.318 171.77 107.537 171.77C107.756 171.77 107.922 171.834 108.035 171.963C108.152 172.088 108.211 172.242 108.211 172.426C108.211 172.605 108.152 172.758 108.035 172.883C107.922 173.008 107.756 173.07 107.537 173.07C107.318 173.07 107.15 173.008 107.033 172.883C106.92 172.758 106.863 172.605 106.863 172.426ZM114.375 170.287H115.453C115.426 170.873 115.307 171.379 115.096 171.805C114.889 172.227 114.586 172.551 114.188 172.777C113.793 173.004 113.299 173.117 112.705 173.117C112.279 173.117 111.895 173.033 111.551 172.865C111.207 172.697 110.912 172.457 110.666 172.145C110.424 171.828 110.238 171.449 110.109 171.008C109.98 170.566 109.916 170.07 109.916 169.52V167.943C109.916 167.396 109.98 166.902 110.109 166.461C110.242 166.02 110.432 165.643 110.678 165.33C110.928 165.014 111.23 164.771 111.586 164.604C111.945 164.436 112.352 164.352 112.805 164.352C113.359 164.352 113.828 164.463 114.211 164.686C114.598 164.904 114.895 165.227 115.102 165.652C115.312 166.074 115.43 166.592 115.453 167.205H114.375C114.348 166.756 114.277 166.391 114.164 166.109C114.051 165.824 113.883 165.615 113.66 165.482C113.441 165.346 113.156 165.277 112.805 165.277C112.492 165.277 112.221 165.34 111.99 165.465C111.764 165.59 111.576 165.77 111.428 166.004C111.283 166.234 111.174 166.514 111.1 166.842C111.029 167.166 110.994 167.529 110.994 167.932V169.52C110.994 169.895 111.023 170.244 111.082 170.568C111.145 170.893 111.242 171.178 111.375 171.424C111.512 171.666 111.689 171.855 111.908 171.992C112.127 172.129 112.393 172.197 112.705 172.197C113.1 172.197 113.412 172.133 113.643 172.004C113.873 171.875 114.043 171.67 114.152 171.389C114.266 171.107 114.34 170.74 114.375 170.287ZM122.461 167.996V169.479C122.461 170.08 122.395 170.609 122.262 171.066C122.133 171.52 121.943 171.898 121.693 172.203C121.443 172.508 121.143 172.736 120.791 172.889C120.439 173.041 120.043 173.117 119.602 173.117C119.176 173.117 118.787 173.041 118.436 172.889C118.084 172.736 117.781 172.508 117.527 172.203C117.273 171.898 117.076 171.52 116.936 171.066C116.799 170.609 116.73 170.08 116.73 169.479V167.996C116.73 167.395 116.799 166.867 116.936 166.414C117.072 165.957 117.268 165.576 117.521 165.271C117.775 164.967 118.078 164.738 118.43 164.586C118.781 164.43 119.17 164.352 119.596 164.352C120.037 164.352 120.434 164.43 120.785 164.586C121.141 164.738 121.441 164.967 121.688 165.271C121.938 165.576 122.129 165.957 122.262 166.414C122.395 166.867 122.461 167.395 122.461 167.996ZM121.395 169.479V167.984C121.395 167.516 121.355 167.113 121.277 166.777C121.199 166.438 121.084 166.16 120.932 165.945C120.779 165.73 120.592 165.572 120.369 165.471C120.146 165.365 119.889 165.312 119.596 165.312C119.318 165.312 119.068 165.365 118.846 165.471C118.627 165.572 118.439 165.73 118.283 165.945C118.127 166.16 118.006 166.438 117.92 166.777C117.838 167.113 117.797 167.516 117.797 167.984V169.479C117.797 169.951 117.838 170.357 117.92 170.697C118.006 171.033 118.127 171.311 118.283 171.529C118.443 171.744 118.635 171.904 118.857 172.01C119.08 172.111 119.328 172.162 119.602 172.162C119.895 172.162 120.152 172.111 120.375 172.01C120.602 171.904 120.789 171.744 120.938 171.529C121.09 171.311 121.203 171.033 121.277 170.697C121.355 170.357 121.395 169.951 121.395 169.479ZM124.471 164.469H125.514L127.746 171.424L129.973 164.469H131.016L128.15 173H127.33L124.471 164.469ZM124.131 164.469H125.045L125.203 169.672V173H124.131V164.469ZM130.436 164.469H131.35V173H130.277V169.672L130.436 164.469Z" fill="white"/>
<path d="M4.61133 140.135H5.56055V141.02H4.61133V143H3.57422V141.02H0.351562V140.381L3.52148 134.469H4.61133V140.135ZM1.5 140.135H3.57422V136.08L1.5 140.135ZM7.03711 138.723L7.40625 134.469H11.1152V135.471H8.2793L8.08008 137.797C8.43164 137.551 8.81055 137.428 9.2168 137.428C9.88086 137.428 10.4023 137.686 10.7812 138.201C11.1602 138.717 11.3496 139.41 11.3496 140.281C11.3496 141.164 11.1426 141.857 10.7285 142.361C10.3184 142.865 9.75391 143.117 9.03516 143.117C8.39453 143.117 7.87305 142.908 7.4707 142.49C7.06836 142.072 6.83789 141.494 6.7793 140.756H7.75195C7.81055 141.244 7.94922 141.613 8.16797 141.863C8.39062 142.109 8.67969 142.232 9.03516 142.232C9.4375 142.232 9.75195 142.059 9.97852 141.711C10.2051 141.359 10.3184 140.887 10.3184 140.293C10.3184 139.734 10.1953 139.279 9.94922 138.928C9.70703 138.576 9.37891 138.4 8.96484 138.4C8.62109 138.4 8.3457 138.49 8.13867 138.67L7.86328 138.945L7.03711 138.723ZM15.6328 143H14.5898V135.775L12.7969 136.578V135.594L15.4688 134.428H15.6328V143ZM23.1797 135.078L20.2441 143H19.1602L22.0898 135.359H18.2871V134.469H23.1797V135.078ZM29.0215 140.311L29.1328 141.266L29.3027 140.422L30.668 134.469H31.5645L32.8887 140.422L33.0586 141.289L33.1816 140.305L34.2246 134.469H35.2969L33.5977 143H32.6309L31.207 136.783L31.1191 136.279L31.0312 136.783L29.5547 143H28.582L26.8887 134.469H27.9609L29.0215 140.311ZM40.2539 140.773H37.3711L36.709 143H35.6074L38.3555 134.469H39.2754L42.0293 143H40.9277L40.2539 140.773ZM37.6523 139.848H39.9785L38.8125 135.969L37.6523 139.848ZM46.916 140.844C46.916 140.418 46.8008 140.092 46.5703 139.865C46.3398 139.639 45.9238 139.418 45.3223 139.203C44.7207 138.988 44.2598 138.764 43.9395 138.529C43.623 138.291 43.3848 138.021 43.2246 137.721C43.0684 137.416 42.9902 137.068 42.9902 136.678C42.9902 136.002 43.2148 135.445 43.6641 135.008C44.1172 134.57 44.709 134.352 45.4395 134.352C45.9395 134.352 46.3848 134.465 46.7754 134.691C47.166 134.914 47.4668 135.225 47.6777 135.623C47.8887 136.021 47.9941 136.459 47.9941 136.936H46.916C46.916 136.408 46.7891 136 46.5352 135.711C46.2812 135.422 45.916 135.277 45.4395 135.277C45.0059 135.277 44.6699 135.398 44.4316 135.641C44.1934 135.883 44.0742 136.223 44.0742 136.66C44.0742 137.02 44.2031 137.32 44.4609 137.562C44.7188 137.805 45.1172 138.021 45.6562 138.213C46.4961 138.49 47.0957 138.832 47.4551 139.238C47.8184 139.645 48 140.176 48 140.832C48 141.523 47.7754 142.078 47.3262 142.496C46.877 142.91 46.2656 143.117 45.4922 143.117C44.9961 143.117 44.5371 143.01 44.1152 142.795C43.6973 142.576 43.3672 142.271 43.125 141.881C42.8867 141.486 42.7676 141.035 42.7676 140.527H43.8457C43.8457 141.055 43.9922 141.465 44.2852 141.758C44.582 142.051 44.9844 142.197 45.4922 142.197C45.9648 142.197 46.3203 142.076 46.5586 141.834C46.7969 141.592 46.916 141.262 46.916 140.844ZM54.9961 143H53.918V139.057H50.4844V143H49.4121V134.469H50.4844V138.137H53.918V134.469H54.9961V143ZM57.9727 143H56.9004V134.469H57.9727V143ZM65.4258 143H64.3477L60.9316 136.426V143H59.8535V134.469H60.9316L64.3594 141.072V134.469H65.4258V143ZM72.6211 141.939L72.4336 142.174C71.8945 142.803 71.1055 143.117 70.0664 143.117C69.1445 143.117 68.4199 142.812 67.8926 142.203C67.3691 141.59 67.1016 140.725 67.0898 139.607V137.932C67.0898 136.736 67.3281 135.842 67.8047 135.248C68.2852 134.65 69.002 134.352 69.9551 134.352C70.7676 134.352 71.4023 134.578 71.8594 135.031C72.3203 135.484 72.5742 136.131 72.6211 136.971H71.5488C71.5059 136.439 71.3574 136.025 71.1035 135.729C70.8535 135.428 70.4727 135.277 69.9609 135.277C69.3477 135.277 68.8984 135.479 68.6133 135.881C68.3281 136.279 68.1797 136.918 68.168 137.797V139.537C68.168 140.396 68.332 141.057 68.6602 141.518C68.9883 141.975 69.459 142.203 70.0723 142.203C70.6504 142.203 71.0898 142.062 71.3906 141.781L71.5488 141.635V139.666H69.9902V138.752H72.6211V141.939ZM79.3594 135.395H77.1152V143H76.043V135.395H73.8047V134.469H79.3594V135.395ZM86.0039 139.484C86.0039 140.648 85.7559 141.545 85.2598 142.174C84.7637 142.803 84.0586 143.117 83.1445 143.117C82.2656 143.117 81.5703 142.812 81.0586 142.203C80.5508 141.59 80.2871 140.725 80.2676 139.607V138.002C80.2676 136.861 80.5195 135.969 81.0234 135.324C81.5273 134.676 82.2305 134.352 83.1328 134.352C84.0312 134.352 84.7305 134.662 85.2305 135.283C85.7344 135.9 85.9922 136.783 86.0039 137.932V139.484ZM84.9316 137.99C84.9316 137.088 84.7832 136.418 84.4863 135.98C84.1934 135.539 83.7422 135.318 83.1328 135.318C82.543 135.318 82.0957 135.541 81.791 135.986C81.4902 136.432 81.3379 137.088 81.334 137.955V139.484C81.334 140.355 81.4844 141.02 81.7852 141.477C82.0898 141.934 82.543 142.162 83.1445 142.162C83.7461 142.162 84.1914 141.951 84.4805 141.529C84.7695 141.107 84.9199 140.461 84.9316 139.59V137.99ZM93.2344 143H92.1562L88.7402 136.426V143H87.6621V134.469H88.7402L92.168 141.072V134.469H93.2344V143ZM101.824 140.773H98.9414L98.2793 143H97.1777L99.9258 134.469H100.846L103.6 143H102.498L101.824 140.773ZM99.2227 139.848H101.549L100.383 135.969L99.2227 139.848ZM106.682 141.354L108.633 134.469H109.811L107.156 143H106.219L103.57 134.469H104.742L106.682 141.354ZM115.061 139.057H112.043V142.08H115.559V143H110.971V134.469H115.5V135.395H112.043V138.137H115.061V139.057ZM116.859 142.432C116.859 142.244 116.914 142.088 117.023 141.963C117.137 141.838 117.305 141.775 117.527 141.775C117.75 141.775 117.918 141.838 118.031 141.963C118.148 142.088 118.207 142.244 118.207 142.432C118.207 142.611 118.148 142.762 118.031 142.883C117.918 143.004 117.75 143.064 117.527 143.064C117.305 143.064 117.137 143.004 117.023 142.883C116.914 142.762 116.859 142.611 116.859 142.432Z" fill="white"/>
<path d="M0.755859 109.537C0.755859 108.514 0.894531 107.551 1.17188 106.648C1.44922 105.746 1.8418 104.955 2.34961 104.275C2.6582 103.865 2.95508 103.564 3.24023 103.373L3.44531 104.088C2.97656 104.537 2.5918 105.215 2.29102 106.121C1.99023 107.023 1.82617 108.027 1.79883 109.133L1.79297 109.607C1.79297 110.982 1.98633 112.197 2.37305 113.252C2.66602 114.045 3.02344 114.658 3.44531 115.092L3.24023 115.754C2.88086 115.512 2.51562 115.113 2.14453 114.559C1.21875 113.164 0.755859 111.49 0.755859 109.537ZM8.38477 110.135H9.33398V111.02H8.38477V113H7.34766V111.02H4.125V110.381L7.29492 104.469H8.38477V110.135ZM5.27344 110.135H7.34766V106.08L5.27344 110.135ZM14.7773 106.695C14.7773 107.121 14.6816 107.5 14.4902 107.832C14.3027 108.164 14.0488 108.424 13.7285 108.611C14.1074 108.807 14.4043 109.088 14.6191 109.455C14.834 109.818 14.9414 110.232 14.9414 110.697C14.9414 111.432 14.7324 112.02 14.3145 112.461C13.9004 112.898 13.3496 113.117 12.6621 113.117C11.9746 113.117 11.4219 112.898 11.0039 112.461C10.5898 112.02 10.3828 111.432 10.3828 110.697C10.3828 110.229 10.4883 109.811 10.6992 109.443C10.9141 109.072 11.2051 108.793 11.5723 108.605C11.252 108.418 11 108.16 10.8164 107.832C10.6328 107.5 10.541 107.121 10.541 106.695C10.541 105.977 10.7344 105.406 11.1211 104.984C11.5117 104.562 12.0254 104.352 12.6621 104.352C13.2949 104.352 13.8047 104.561 14.1914 104.979C14.582 105.396 14.7773 105.969 14.7773 106.695ZM13.9043 110.674C13.9043 110.186 13.7891 109.795 13.5586 109.502C13.3281 109.205 13.0254 109.057 12.6504 109.057C12.2676 109.057 11.9648 109.205 11.7422 109.502C11.5234 109.799 11.4141 110.189 11.4141 110.674C11.4141 111.166 11.5215 111.549 11.7363 111.822C11.9551 112.096 12.2637 112.232 12.6621 112.232C13.0605 112.232 13.3672 112.096 13.582 111.822C13.7969 111.549 13.9043 111.166 13.9043 110.674ZM13.7461 106.713C13.7461 106.279 13.6445 105.926 13.4414 105.652C13.2383 105.379 12.9785 105.242 12.6621 105.242C12.3301 105.242 12.0664 105.377 11.8711 105.646C11.6758 105.916 11.5781 106.271 11.5781 106.713C11.5781 107.158 11.6777 107.512 11.877 107.773C12.0762 108.035 12.3379 108.166 12.6621 108.166C12.9941 108.166 13.2578 108.033 13.4531 107.768C13.6484 107.502 13.7461 107.15 13.7461 106.713ZM20.877 109.361C20.877 110.619 20.6934 111.561 20.3262 112.186C19.959 112.807 19.3828 113.117 18.5977 113.117C17.8359 113.117 17.2676 112.818 16.8926 112.221C16.5176 111.623 16.3223 110.725 16.3066 109.525V108.061C16.3066 106.814 16.4902 105.885 16.8574 105.271C17.2285 104.658 17.8047 104.352 18.5859 104.352C19.3555 104.352 19.9238 104.643 20.291 105.225C20.6621 105.807 20.8574 106.688 20.877 107.867V109.361ZM19.8398 107.879C19.8398 106.977 19.7402 106.312 19.541 105.887C19.3418 105.457 19.0234 105.242 18.5859 105.242C18.1602 105.242 17.8477 105.453 17.6484 105.875C17.4492 106.293 17.3457 106.926 17.3379 107.773V109.531C17.3379 110.43 17.4414 111.105 17.6484 111.559C17.8555 112.008 18.1719 112.232 18.5977 112.232C19.0195 112.232 19.3301 112.02 19.5293 111.594C19.7285 111.168 19.832 110.518 19.8398 109.643V107.879ZM24.5684 109.596C24.5684 111.338 24.1777 112.879 23.3965 114.219C22.9746 114.938 22.5371 115.449 22.084 115.754L21.8789 115.092C22.3711 114.619 22.7676 113.898 23.0684 112.93C23.3691 111.957 23.5234 110.893 23.5312 109.736V109.525C23.5312 108.041 23.2871 106.713 22.7988 105.541C22.5293 104.9 22.2227 104.398 21.8789 104.035L22.084 103.373C22.5137 103.662 22.9297 104.137 23.332 104.797C24.1562 106.156 24.5684 107.756 24.5684 109.596ZM29.2441 108.723L29.6133 104.469H33.3223V105.471H30.4863L30.2871 107.797C30.6387 107.551 31.0176 107.428 31.4238 107.428C32.0879 107.428 32.6094 107.686 32.9883 108.201C33.3672 108.717 33.5566 109.41 33.5566 110.281C33.5566 111.164 33.3496 111.857 32.9355 112.361C32.5254 112.865 31.9609 113.117 31.2422 113.117C30.6016 113.117 30.0801 112.908 29.6777 112.49C29.2754 112.072 29.0449 111.494 28.9863 110.756H29.959C30.0176 111.244 30.1562 111.613 30.375 111.863C30.5977 112.109 30.8867 112.232 31.2422 112.232C31.6445 112.232 31.959 112.059 32.1855 111.711C32.4121 111.359 32.5254 110.887 32.5254 110.293C32.5254 109.734 32.4023 109.279 32.1562 108.928C31.9141 108.576 31.5859 108.4 31.1719 108.4C30.8281 108.4 30.5527 108.49 30.3457 108.67L30.0703 108.945L29.2441 108.723ZM35.1738 108.723L35.543 104.469H39.252V105.471H36.416L36.2168 107.797C36.5684 107.551 36.9473 107.428 37.3535 107.428C38.0176 107.428 38.5391 107.686 38.918 108.201C39.2969 108.717 39.4863 109.41 39.4863 110.281C39.4863 111.164 39.2793 111.857 38.8652 112.361C38.4551 112.865 37.8906 113.117 37.1719 113.117C36.5312 113.117 36.0098 112.908 35.6074 112.49C35.2051 112.072 34.9746 111.494 34.916 110.756H35.8887C35.9473 111.244 36.0859 111.613 36.3047 111.863C36.5273 112.109 36.8164 112.232 37.1719 112.232C37.5742 112.232 37.8887 112.059 38.1152 111.711C38.3418 111.359 38.4551 110.887 38.4551 110.293C38.4551 109.734 38.332 109.279 38.0859 108.928C37.8438 108.576 37.5156 108.4 37.1016 108.4C36.7578 108.4 36.4824 108.49 36.2754 108.67L36 108.945L35.1738 108.723ZM41.1035 108.723L41.4727 104.469H45.1816V105.471H42.3457L42.1465 107.797C42.498 107.551 42.877 107.428 43.2832 107.428C43.9473 107.428 44.4688 107.686 44.8477 108.201C45.2266 108.717 45.416 109.41 45.416 110.281C45.416 111.164 45.209 111.857 44.7949 112.361C44.3848 112.865 43.8203 113.117 43.1016 113.117C42.4609 113.117 41.9395 112.908 41.5371 112.49C41.1348 112.072 40.9043 111.494 40.8457 110.756H41.8184C41.877 111.244 42.0156 111.613 42.2344 111.863C42.457 112.109 42.7461 112.232 43.1016 112.232C43.5039 112.232 43.8184 112.059 44.0449 111.711C44.2715 111.359 44.3848 110.887 44.3848 110.293C44.3848 109.734 44.2617 109.279 44.0156 108.928C43.7734 108.576 43.4453 108.4 43.0312 108.4C42.6875 108.4 42.4121 108.49 42.2051 108.67L41.9297 108.945L41.1035 108.723ZM48.6211 109.818H46.2012V108.934H48.6211V109.818ZM54.1465 109.361C54.1465 110.619 53.9629 111.561 53.5957 112.186C53.2285 112.807 52.6523 113.117 51.8672 113.117C51.1055 113.117 50.5371 112.818 50.1621 112.221C49.7871 111.623 49.5918 110.725 49.5762 109.525V108.061C49.5762 106.814 49.7598 105.885 50.127 105.271C50.498 104.658 51.0742 104.352 51.8555 104.352C52.625 104.352 53.1934 104.643 53.5605 105.225C53.9316 105.807 54.127 106.688 54.1465 107.867V109.361ZM53.1094 107.879C53.1094 106.977 53.0098 106.312 52.8105 105.887C52.6113 105.457 52.293 105.242 51.8555 105.242C51.4297 105.242 51.1172 105.453 50.918 105.875C50.7188 106.293 50.6152 106.926 50.6074 107.773V109.531C50.6074 110.43 50.7109 111.105 50.918 111.559C51.125 112.008 51.4414 112.232 51.8672 112.232C52.2891 112.232 52.5996 112.02 52.7988 111.594C52.998 111.168 53.1016 110.518 53.1094 109.643V107.879ZM58.6055 113H57.5625V105.775L55.7695 106.578V105.594L58.4414 104.428H58.6055V113ZM66.0059 109.361C66.0059 110.619 65.8223 111.561 65.4551 112.186C65.0879 112.807 64.5117 113.117 63.7266 113.117C62.9648 113.117 62.3965 112.818 62.0215 112.221C61.6465 111.623 61.4512 110.725 61.4355 109.525V108.061C61.4355 106.814 61.6191 105.885 61.9863 105.271C62.3574 104.658 62.9336 104.352 63.7148 104.352C64.4844 104.352 65.0527 104.643 65.4199 105.225C65.791 105.807 65.9863 106.688 66.0059 107.867V109.361ZM64.9688 107.879C64.9688 106.977 64.8691 106.312 64.6699 105.887C64.4707 105.457 64.1523 105.242 63.7148 105.242C63.2891 105.242 62.9766 105.453 62.7773 105.875C62.5781 106.293 62.4746 106.926 62.4668 107.773V109.531C62.4668 110.43 62.5703 111.105 62.7773 111.559C62.9844 112.008 63.3008 112.232 63.7266 112.232C64.1484 112.232 64.459 112.02 64.6582 111.594C64.8574 111.168 64.9609 110.518 64.9688 109.643V107.879ZM68.7012 108.207H69.3633C69.7891 108.207 70.1172 108.076 70.3477 107.814C70.5781 107.553 70.6934 107.195 70.6934 106.742C70.6934 105.742 70.3066 105.242 69.5332 105.242C69.1621 105.242 68.8711 105.377 68.6602 105.646C68.4492 105.916 68.3438 106.27 68.3438 106.707H67.3125C67.3125 106.023 67.5195 105.461 67.9336 105.02C68.3516 104.574 68.8848 104.352 69.5332 104.352C70.2051 104.352 70.7383 104.562 71.1328 104.984C71.5273 105.402 71.7246 105.996 71.7246 106.766C71.7246 107.16 71.6211 107.529 71.4141 107.873C71.2109 108.213 70.9453 108.463 70.6172 108.623C71.4219 108.92 71.8242 109.586 71.8242 110.621C71.8242 111.383 71.6113 111.99 71.1855 112.443C70.7637 112.893 70.2109 113.117 69.5273 113.117C68.8516 113.117 68.3047 112.904 67.8867 112.479C67.4727 112.049 67.2656 111.473 67.2656 110.75H68.3027C68.3027 111.203 68.4121 111.564 68.6309 111.834C68.8496 112.1 69.1484 112.232 69.5273 112.232C69.9141 112.232 70.2207 112.102 70.4473 111.84C70.6777 111.578 70.793 111.18 70.793 110.645C70.793 109.609 70.3027 109.092 69.3223 109.092H68.7012V108.207Z" fill="white"/>
<path d="M6.81445 63.4961H7.66992C7.66992 64.1094 7.49414 64.5703 7.14258 64.8789C6.79492 65.1836 6.32227 65.3359 5.72461 65.3359C5.31055 65.3359 4.95117 65.2402 4.64648 65.0488C4.3457 64.8574 4.11133 64.5918 3.94336 64.252C3.7793 63.9121 3.69727 63.5176 3.69727 63.0684V62.3945C3.69727 61.9453 3.7793 61.5508 3.94336 61.2109C4.11133 60.8711 4.3457 60.6055 4.64648 60.4141C4.95117 60.2227 5.31055 60.127 5.72461 60.127C6.32227 60.127 6.79688 60.2793 7.14844 60.584C7.5 60.8887 7.67578 61.3477 7.67578 61.9609H6.82031C6.82031 61.5742 6.72656 61.2969 6.53906 61.1289C6.35547 60.9609 6.08398 60.877 5.72461 60.877C5.4668 60.877 5.25 60.9414 5.07422 61.0703C4.89844 61.1992 4.76562 61.3789 4.67578 61.6094C4.58594 61.8359 4.54102 62.0957 4.54102 62.3887V63.0684C4.54102 63.3652 4.58594 63.6289 4.67578 63.8594C4.76562 64.0859 4.89844 64.2637 5.07422 64.3926C5.25 64.5215 5.4668 64.5859 5.72461 64.5859C6.08398 64.5859 6.35547 64.502 6.53906 64.334C6.72266 64.166 6.81445 63.8867 6.81445 63.4961ZM2.32031 62.7285C2.32031 63.248 2.41016 63.7324 2.58984 64.1816C2.76953 64.6309 3.01953 65.0234 3.33984 65.3594C3.66016 65.6953 4.03125 65.957 4.45312 66.1445C4.875 66.332 5.32617 66.4258 5.80664 66.4258C6.28711 66.4258 6.73633 66.332 7.1543 66.1445C7.57617 65.957 7.94531 65.6953 8.26172 65.3594C8.58203 65.0234 8.83203 64.6309 9.01172 64.1816C9.19141 63.7324 9.28125 63.248 9.28125 62.7285C9.28125 62.2051 9.19141 61.7207 9.01172 61.2754C8.83203 60.8301 8.58203 60.4414 8.26172 60.1094C7.94531 59.7734 7.57617 59.5137 7.1543 59.3301C6.73633 59.1426 6.28711 59.0488 5.80664 59.0488C5.32617 59.0488 4.875 59.1426 4.45312 59.3301C4.03125 59.5137 3.66016 59.7734 3.33984 60.1094C3.01953 60.4414 2.76953 60.8301 2.58984 61.2754C2.41016 61.7207 2.32031 62.2051 2.32031 62.7285ZM1.64648 62.7285C1.64648 62.1074 1.75391 61.5312 1.96875 61C2.18359 60.4688 2.48242 60.0059 2.86523 59.6113C3.24805 59.2129 3.68945 58.9043 4.18945 58.6855C4.69336 58.4629 5.23242 58.3516 5.80664 58.3516C6.38086 58.3516 6.91797 58.4629 7.41797 58.6855C7.92188 58.9043 8.36328 59.2129 8.74219 59.6113C9.125 60.0059 9.42383 60.4688 9.63867 61C9.85352 61.5312 9.96094 62.1074 9.96094 62.7285C9.96094 63.3496 9.85352 63.9258 9.63867 64.457C9.42383 64.9883 9.125 65.4551 8.74219 65.8574C8.36328 66.2559 7.92188 66.5664 7.41797 66.7891C6.91797 67.0117 6.38086 67.123 5.80664 67.123C5.23242 67.123 4.69336 67.0117 4.18945 66.7891C3.68945 66.5664 3.24805 66.2559 2.86523 65.8574C2.48242 65.4551 2.18359 64.9883 1.96875 64.457C1.75391 63.9258 1.64648 63.3496 1.64648 62.7285ZM18.4863 64.2871H19.5645C19.5371 64.873 19.418 65.3789 19.207 65.8047C19 66.2266 18.6973 66.5508 18.2988 66.7773C17.9043 67.0039 17.4102 67.1172 16.8164 67.1172C16.3906 67.1172 16.0059 67.0332 15.6621 66.8652C15.3184 66.6973 15.0234 66.457 14.7773 66.1445C14.5352 65.8281 14.3496 65.4492 14.2207 65.0078C14.0918 64.5664 14.0273 64.0703 14.0273 63.5195V61.9434C14.0273 61.3965 14.0918 60.9023 14.2207 60.4609C14.3535 60.0195 14.543 59.6426 14.7891 59.3301C15.0391 59.0137 15.3418 58.7715 15.6973 58.6035C16.0566 58.4355 16.4629 58.3516 16.916 58.3516C17.4707 58.3516 17.9395 58.4629 18.3223 58.6855C18.709 58.9043 19.0059 59.2266 19.2129 59.6523C19.4238 60.0742 19.541 60.5918 19.5645 61.2051H18.4863C18.459 60.7559 18.3887 60.3906 18.2754 60.1094C18.1621 59.8242 17.9941 59.6152 17.7715 59.4824C17.5527 59.3457 17.2676 59.2773 16.916 59.2773C16.6035 59.2773 16.332 59.3398 16.1016 59.4648C15.875 59.5898 15.6875 59.7695 15.5391 60.0039C15.3945 60.2344 15.2852 60.5137 15.2109 60.8418C15.1406 61.166 15.1055 61.5293 15.1055 61.9316V63.5195C15.1055 63.8945 15.1348 64.2441 15.1934 64.5684C15.2559 64.8926 15.3535 65.1777 15.4863 65.4238C15.623 65.666 15.8008 65.8555 16.0195 65.9922C16.2383 66.1289 16.5039 66.1973 16.8164 66.1973C17.2109 66.1973 17.5234 66.1328 17.7539 66.0039C17.9844 65.875 18.1543 65.6699 18.2637 65.3887C18.377 65.1074 18.4512 64.7402 18.4863 64.2871ZM26.5723 61.9961V63.4785C26.5723 64.0801 26.5059 64.6094 26.373 65.0664C26.2441 65.5195 26.0547 65.8984 25.8047 66.2031C25.5547 66.5078 25.2539 66.7363 24.9023 66.8887C24.5508 67.041 24.1543 67.1172 23.7129 67.1172C23.2871 67.1172 22.8984 67.041 22.5469 66.8887C22.1953 66.7363 21.8926 66.5078 21.6387 66.2031C21.3848 65.8984 21.1875 65.5195 21.0469 65.0664C20.9102 64.6094 20.8418 64.0801 20.8418 63.4785V61.9961C20.8418 61.3945 20.9102 60.8672 21.0469 60.4141C21.1836 59.957 21.3789 59.5762 21.6328 59.2715C21.8867 58.9668 22.1895 58.7383 22.541 58.5859C22.8926 58.4297 23.2812 58.3516 23.707 58.3516C24.1484 58.3516 24.5449 58.4297 24.8965 58.5859C25.252 58.7383 25.5527 58.9668 25.7988 59.2715C26.0488 59.5762 26.2402 59.957 26.373 60.4141C26.5059 60.8672 26.5723 61.3945 26.5723 61.9961ZM25.5059 63.4785V61.9844C25.5059 61.5156 25.4668 61.1133 25.3887 60.7773C25.3105 60.4375 25.1953 60.1602 25.043 59.9453C24.8906 59.7305 24.7031 59.5723 24.4805 59.4707C24.2578 59.3652 24 59.3125 23.707 59.3125C23.4297 59.3125 23.1797 59.3652 22.957 59.4707C22.7383 59.5723 22.5508 59.7305 22.3945 59.9453C22.2383 60.1602 22.1172 60.4375 22.0312 60.7773C21.9492 61.1133 21.9082 61.5156 21.9082 61.9844V63.4785C21.9082 63.9512 21.9492 64.3574 22.0312 64.6973C22.1172 65.0332 22.2383 65.3105 22.3945 65.5293C22.5547 65.7441 22.7461 65.9043 22.9688 66.0098C23.1914 66.1113 23.4395 66.1621 23.7129 66.1621C24.0059 66.1621 24.2637 66.1113 24.4863 66.0098C24.7129 65.9043 24.9004 65.7441 25.0488 65.5293C25.2012 65.3105 25.3145 65.0332 25.3887 64.6973C25.4668 64.3574 25.5059 63.9512 25.5059 63.4785ZM30.9609 63.6543H29.0977V62.7344H30.9609C31.3125 62.7344 31.5957 62.6641 31.8105 62.5234C32.0293 62.3828 32.1875 62.1875 32.2852 61.9375C32.3867 61.6875 32.4375 61.4023 32.4375 61.082C32.4375 60.7891 32.3867 60.5137 32.2852 60.2559C32.1875 59.998 32.0293 59.791 31.8105 59.6348C31.5957 59.4746 31.3125 59.3945 30.9609 59.3945H29.3203V67H28.2422V58.4688H30.9609C31.5117 58.4688 31.9766 58.5801 32.3555 58.8027C32.7344 59.0254 33.0215 59.334 33.2168 59.7285C33.416 60.1191 33.5156 60.5664 33.5156 61.0703C33.5156 61.6172 33.416 62.084 33.2168 62.4707C33.0215 62.8574 32.7344 63.1523 32.3555 63.3555C31.9766 63.5547 31.5117 63.6543 30.9609 63.6543ZM35.3789 58.4688L37.1191 62.752L38.8652 58.4688H40.084L37.6582 63.8125V67H36.5801V63.8125L34.1543 58.4688H35.3789ZM41.209 58.4688H43.5938C44.1484 58.4688 44.6133 58.5664 44.9883 58.7617C45.3672 58.957 45.6523 59.2461 45.8438 59.6289C46.0391 60.0078 46.1367 60.4746 46.1367 61.0293C46.1367 61.4199 46.0723 61.7773 45.9434 62.1016C45.8145 62.4219 45.627 62.6953 45.3809 62.9219C45.1348 63.1445 44.8359 63.3105 44.4844 63.4199L44.1914 63.543H42.0645L42.0527 62.623H43.582C43.9102 62.623 44.1836 62.5527 44.4023 62.4121C44.6211 62.2676 44.7852 62.0742 44.8945 61.832C45.0039 61.5898 45.0586 61.3223 45.0586 61.0293C45.0586 60.7012 45.0098 60.4141 44.9121 60.168C44.8145 59.9219 44.6582 59.7324 44.4434 59.5996C44.2324 59.4629 43.9492 59.3945 43.5938 59.3945H42.2871V67H41.209V58.4688ZM45.3047 67L43.6055 63.1328L44.7246 63.127L46.459 66.9297V67H45.3047ZM48.7031 58.4688V67H47.625V58.4688H48.7031ZM55.9219 62.752V65.9336C55.8281 66.0586 55.6855 66.2148 55.4941 66.4023C55.3066 66.5898 55.043 66.7559 54.7031 66.9004C54.3633 67.0449 53.918 67.1172 53.3672 67.1172C52.9258 67.1172 52.5215 67.043 52.1543 66.8945C51.791 66.7461 51.4766 66.5234 51.2109 66.2266C50.9492 65.9258 50.7461 65.5527 50.6016 65.1074C50.457 64.6582 50.3848 64.1328 50.3848 63.5312V61.9316C50.3848 61.334 50.4453 60.8105 50.5664 60.3613C50.6875 59.9121 50.8672 59.5391 51.1055 59.2422C51.3477 58.9453 51.6465 58.7227 52.002 58.5742C52.3613 58.4258 52.7793 58.3516 53.2559 58.3516C53.8066 58.3516 54.2754 58.4551 54.6621 58.6621C55.0488 58.8691 55.3477 59.168 55.5586 59.5586C55.7734 59.9492 55.8945 60.418 55.9219 60.9648H54.8438C54.8164 60.6133 54.7422 60.3125 54.6211 60.0625C54.5 59.8086 54.3281 59.6152 54.1055 59.4824C53.8828 59.3457 53.5996 59.2773 53.2559 59.2773C52.9277 59.2773 52.6504 59.332 52.4238 59.4414C52.1973 59.5508 52.0117 59.7148 51.8672 59.9336C51.7266 60.1523 51.623 60.4277 51.5566 60.7598C51.4941 61.0918 51.4629 61.4785 51.4629 61.9199V63.5312C51.4629 63.9844 51.5078 64.3789 51.5977 64.7148C51.6875 65.0508 51.8145 65.3281 51.9785 65.5469C52.1465 65.7656 52.3477 65.9297 52.582 66.0391C52.8164 66.1445 53.0801 66.1973 53.373 66.1973C53.7051 66.1973 53.9668 66.1621 54.1582 66.0918C54.3496 66.0215 54.4961 65.9414 54.5977 65.8516C54.7031 65.7617 54.7871 65.6895 54.8496 65.6348V63.666H53.2852V62.752H55.9219ZM62.2969 62.1367V63.0566H58.5996V62.1367H62.2969ZM58.7461 58.4688V67H57.668V58.4688H58.7461ZM63.252 58.4688V67H62.1738V58.4688H63.252ZM67.6758 58.4688V67H66.6094V58.4688H67.6758ZM69.9199 58.4688V59.3945H64.3711V58.4688H69.9199ZM74.7773 58.4688V67H73.6992V58.4688H74.7773ZM77.6543 62.3066V63.2324H74.5723V62.3066H77.6543ZM78.1406 58.4688V59.3945H74.5723V58.4688H78.1406ZM80.6016 58.4688V67H79.5234V58.4688H80.6016ZM88.0547 58.4688V67H86.9707L83.5547 60.4199V67H82.4766V58.4688H83.5547L86.9883 65.0664V58.4688H88.0547ZM93.6504 64.8438C93.6504 64.6445 93.627 64.4688 93.5801 64.3164C93.5332 64.1602 93.4512 64.0195 93.334 63.8945C93.2168 63.7695 93.0527 63.6504 92.8418 63.5371C92.6309 63.4238 92.3633 63.3086 92.0391 63.1914C91.6875 63.0664 91.3691 62.9277 91.084 62.7754C90.7988 62.6191 90.5547 62.4414 90.3516 62.2422C90.1523 62.043 89.998 61.8145 89.8887 61.5566C89.7793 61.2988 89.7246 61.0039 89.7246 60.6719C89.7246 60.3398 89.7812 60.0332 89.8945 59.752C90.0117 59.4707 90.1758 59.2266 90.3867 59.0195C90.6016 58.8086 90.8594 58.6445 91.1602 58.5273C91.4609 58.4102 91.7969 58.3516 92.168 58.3516C92.7227 58.3516 93.1895 58.4746 93.5684 58.7207C93.9512 58.9629 94.2402 59.2812 94.4355 59.6758C94.6309 60.0664 94.7285 60.4844 94.7285 60.9297H93.6504C93.6504 60.6094 93.5977 60.3262 93.4922 60.0801C93.3906 59.8301 93.2305 59.6348 93.0117 59.4941C92.7969 59.3496 92.5156 59.2773 92.168 59.2773C91.8555 59.2773 91.5977 59.3379 91.3945 59.459C91.1953 59.5801 91.0469 59.7441 90.9492 59.9512C90.8555 60.1582 90.8086 60.3945 90.8086 60.6602C90.8086 60.8398 90.8398 61.0039 90.9023 61.1523C90.9648 61.2969 91.0605 61.4316 91.1895 61.5566C91.3223 61.6816 91.4863 61.7969 91.6816 61.9023C91.8809 62.0078 92.1152 62.1094 92.3848 62.207C92.8027 62.3438 93.1602 62.4961 93.457 62.6641C93.7539 62.832 93.9961 63.0215 94.1836 63.2324C94.3711 63.4395 94.5078 63.6758 94.5938 63.9414C94.6836 64.2031 94.7285 64.5 94.7285 64.832C94.7285 65.1797 94.6699 65.4941 94.5527 65.7754C94.4395 66.0566 94.2734 66.2969 94.0547 66.4961C93.8359 66.6953 93.5723 66.8496 93.2637 66.959C92.9551 67.0645 92.6074 67.1172 92.2207 67.1172C91.8848 67.1172 91.5547 67.0625 91.2305 66.9531C90.9102 66.8438 90.6191 66.6797 90.3574 66.4609C90.0957 66.2422 89.8867 65.9727 89.7305 65.6523C89.5742 65.3281 89.4961 64.9531 89.4961 64.5273H90.5742C90.5742 64.8203 90.6172 65.0723 90.7031 65.2832C90.7891 65.4902 90.9082 65.6621 91.0605 65.7988C91.2129 65.9355 91.3867 66.0371 91.582 66.1035C91.7812 66.166 91.9941 66.1973 92.2207 66.1973C92.5332 66.1973 92.7949 66.1426 93.0059 66.0332C93.2207 65.9238 93.3809 65.7676 93.4863 65.5645C93.5957 65.3613 93.6504 65.1211 93.6504 64.8438ZM98.0566 64.4219L99.4219 58.4688H100.189L99.7852 60.7832L98.3027 67H97.5352L98.0566 64.4219ZM96.709 58.4688L97.7754 64.3047L98.0918 67H97.3359L95.6367 58.4688H96.709ZM101.93 64.2988L102.973 58.4688H104.045L102.352 67H101.596L101.93 64.2988ZM100.312 58.4688L101.637 64.4219L102.146 67H101.379L99.9609 60.7832L99.5566 58.4688H100.312ZM109.869 66.0801V67H106.166V66.0801H109.869ZM106.359 58.4688V67H105.281V58.4688H106.359ZM109.371 62.1367V63.0566H106.166V62.1367H109.371ZM109.811 58.4688V59.3945H106.166V58.4688H109.811ZM115.834 66.0801V67H112.131V66.0801H115.834ZM112.324 58.4688V67H111.246V58.4688H112.324ZM115.336 62.1367V63.0566H112.131V62.1367H115.336ZM115.775 58.4688V59.3945H112.131V58.4688H115.775ZM120.07 58.4688V67H119.004V58.4688H120.07ZM122.314 58.4688V59.3945H116.766V58.4688H122.314ZM130.629 66.1094V67H125.859V66.2207L128.209 63.1094C128.498 62.7266 128.719 62.4023 128.871 62.1367C129.023 61.8672 129.129 61.627 129.188 61.416C129.246 61.2012 129.275 60.9824 129.275 60.7598C129.275 60.4785 129.23 60.2246 129.141 59.998C129.051 59.7676 128.92 59.584 128.748 59.4473C128.576 59.3105 128.369 59.2422 128.127 59.2422C127.811 59.2422 127.551 59.3164 127.348 59.4648C127.148 59.6094 127.002 59.8125 126.908 60.0742C126.814 60.3359 126.768 60.6367 126.768 60.9766H125.73C125.73 60.4961 125.818 60.0566 125.994 59.6582C126.174 59.2598 126.441 58.9434 126.797 58.709C127.152 58.4707 127.596 58.3516 128.127 58.3516C128.584 58.3516 128.975 58.4473 129.299 58.6387C129.627 58.8262 129.877 59.0918 130.049 59.4355C130.225 59.7754 130.312 60.1738 130.312 60.6309C130.312 60.8809 130.277 61.1348 130.207 61.3926C130.141 61.6465 130.047 61.9004 129.926 62.1543C129.809 62.4082 129.67 62.6582 129.51 62.9043C129.35 63.1504 129.178 63.3926 128.994 63.6309L127.102 66.1094H130.629ZM136.348 62.0547V63.3555C136.348 64.0547 136.293 64.6445 136.184 65.125C136.078 65.6055 135.926 65.9922 135.727 66.2852C135.527 66.5781 135.287 66.791 135.006 66.9238C134.729 67.0527 134.416 67.1172 134.068 67.1172C133.795 67.1172 133.539 67.0762 133.301 66.9941C133.066 66.9121 132.855 66.7812 132.668 66.6016C132.48 66.418 132.32 66.1797 132.188 65.8867C132.055 65.5938 131.953 65.2383 131.883 64.8203C131.812 64.4023 131.777 63.9141 131.777 63.3555V62.0547C131.777 61.3555 131.832 60.7695 131.941 60.2969C132.051 59.8242 132.205 59.4453 132.404 59.1602C132.607 58.8711 132.848 58.6641 133.125 58.5391C133.406 58.4141 133.719 58.3516 134.062 58.3516C134.34 58.3516 134.596 58.3926 134.83 58.4746C135.068 58.5527 135.279 58.6797 135.463 58.8555C135.65 59.0273 135.811 59.2578 135.943 59.5469C136.076 59.832 136.176 60.1816 136.242 60.5957C136.312 61.0098 136.348 61.4961 136.348 62.0547ZM135.316 63.5312V61.873C135.316 61.4902 135.299 61.1543 135.264 60.8652C135.229 60.5723 135.178 60.3223 135.111 60.1152C135.045 59.9082 134.959 59.7402 134.854 59.6113C134.752 59.4824 134.635 59.3887 134.502 59.3301C134.369 59.2676 134.223 59.2363 134.062 59.2363C133.863 59.2363 133.686 59.2852 133.529 59.3828C133.377 59.4766 133.246 59.627 133.137 59.834C133.031 60.041 132.951 60.3125 132.896 60.6484C132.842 60.9844 132.814 61.3926 132.814 61.873V63.5312C132.814 63.9141 132.832 64.252 132.867 64.5449C132.906 64.8379 132.959 65.0918 133.025 65.3066C133.096 65.5176 133.182 65.6914 133.283 65.8281C133.385 65.9648 133.502 66.0664 133.635 66.1328C133.768 66.1953 133.912 66.2266 134.068 66.2266C134.275 66.2266 134.455 66.1758 134.607 66.0742C134.764 65.9727 134.895 65.8145 135 65.5996C135.105 65.3809 135.184 65.1016 135.234 64.7617C135.289 64.418 135.316 64.0078 135.316 63.5312ZM142.488 66.1094V67H137.719V66.2207L140.068 63.1094C140.357 62.7266 140.578 62.4023 140.73 62.1367C140.883 61.8672 140.988 61.627 141.047 61.416C141.105 61.2012 141.135 60.9824 141.135 60.7598C141.135 60.4785 141.09 60.2246 141 59.998C140.91 59.7676 140.779 59.584 140.607 59.4473C140.436 59.3105 140.229 59.2422 139.986 59.2422C139.67 59.2422 139.41 59.3164 139.207 59.4648C139.008 59.6094 138.861 59.8125 138.768 60.0742C138.674 60.3359 138.627 60.6367 138.627 60.9766H137.59C137.59 60.4961 137.678 60.0566 137.854 59.6582C138.033 59.2598 138.301 58.9434 138.656 58.709C139.012 58.4707 139.455 58.3516 139.986 58.3516C140.443 58.3516 140.834 58.4473 141.158 58.6387C141.486 58.8262 141.736 59.0918 141.908 59.4355C142.084 59.7754 142.172 60.1738 142.172 60.6309C142.172 60.8809 142.137 61.1348 142.066 61.3926C142 61.6465 141.906 61.9004 141.785 62.1543C141.668 62.4082 141.529 62.6582 141.369 62.9043C141.209 63.1504 141.037 63.3926 140.854 63.6309L138.961 66.1094H142.488ZM148.418 66.1094V67H143.648V66.2207L145.998 63.1094C146.287 62.7266 146.508 62.4023 146.66 62.1367C146.812 61.8672 146.918 61.627 146.977 61.416C147.035 61.2012 147.064 60.9824 147.064 60.7598C147.064 60.4785 147.02 60.2246 146.93 59.998C146.84 59.7676 146.709 59.584 146.537 59.4473C146.365 59.3105 146.158 59.2422 145.916 59.2422C145.6 59.2422 145.34 59.3164 145.137 59.4648C144.938 59.6094 144.791 59.8125 144.697 60.0742C144.604 60.3359 144.557 60.6367 144.557 60.9766H143.52C143.52 60.4961 143.607 60.0566 143.783 59.6582C143.963 59.2598 144.23 58.9434 144.586 58.709C144.941 58.4707 145.385 58.3516 145.916 58.3516C146.373 58.3516 146.764 58.4473 147.088 58.6387C147.416 58.8262 147.666 59.0918 147.838 59.4355C148.014 59.7754 148.102 60.1738 148.102 60.6309C148.102 60.8809 148.066 61.1348 147.996 61.3926C147.93 61.6465 147.836 61.9004 147.715 62.1543C147.598 62.4082 147.459 62.6582 147.299 62.9043C147.139 63.1504 146.967 63.3926 146.783 63.6309L144.891 66.1094H148.418Z" fill="white"/>
<g clip-path="url(#clip0_546_154)">
<path d="M139.752 21.6557V25.1203H136.846C133.744 25.0228 132.087 23.3481 132.087 20.2026V12.2899H130.058V9.25068H132.087V5.84814H136.376V9.21523H139.655V12.2456H136.376V19.7773C136.376 20.7962 136.58 21.6114 138.148 21.6114L139.752 21.6557Z" fill="#FFD0A0"/>
<path d="M112.966 17.2166V16.9862C112.919 15.9671 113.075 14.9488 113.422 13.9898C113.77 13.0308 114.304 12.1498 114.993 11.3975C115.682 10.6451 116.513 10.0361 117.438 9.6054C118.362 9.17468 119.363 8.9307 120.382 8.88745C120.586 8.88745 120.799 8.88745 121.002 8.88745C125.052 8.88745 128.605 11.2444 128.605 16.8621V18.0583H117.352C117.467 20.6457 118.867 22.1077 121.224 22.1077C123.253 22.1077 124.201 21.2216 124.476 19.928H128.525C128.029 23.3039 125.335 25.1824 121.073 25.1824C116.395 25.1469 112.966 22.1875 112.966 17.2166ZM124.387 15.3469C124.237 12.99 123.049 11.8558 120.985 11.8558C118.92 11.8558 117.733 13.1318 117.44 15.3469H124.387Z" fill="#FFD0A0"/>
<path d="M95.457 17.2166V16.9862C95.4106 15.9685 95.5652 14.9516 95.912 13.9937C96.2587 13.0358 96.7909 12.1557 97.478 11.4035C98.1652 10.6514 98.9938 10.042 99.9165 9.61032C100.839 9.1786 101.838 8.93296 102.856 8.88745C103.06 8.88745 103.272 8.88745 103.476 8.88745C107.525 8.88745 111.087 11.2444 111.087 16.8621V18.0583H99.8431C99.9583 20.6457 101.358 22.1077 103.715 22.1077C105.744 22.1077 106.692 21.2216 106.967 19.928H111.017C110.511 23.3039 107.818 25.1824 103.556 25.1824C98.8861 25.1469 95.457 22.1875 95.457 17.2166ZM106.879 15.3469C106.728 12.99 105.541 11.8558 103.476 11.8558C101.411 11.8558 100.26 13.1672 99.9317 15.3381L106.879 15.3469Z" fill="#FFD0A0"/>
<path d="M70.886 9.21509H75.4227L78.1961 19.7239L81.2354 9.21509H84.7797L87.5265 19.7239L90.4505 9.21509H94.6062L89.6797 24.8277H85.4265L82.7683 15.0277L79.924 24.8277H75.6176L70.886 9.21509Z" fill="#FFD0A0"/>
<path d="M56.4697 19.9189H60.5191C60.7052 21.3278 61.4052 22.1341 63.2659 22.1341C64.9318 22.1341 65.7026 21.505 65.7026 20.4328C65.7026 19.3607 64.8166 18.9088 62.5482 18.5898C58.3925 17.9607 56.7887 16.7645 56.7887 13.7164C56.7887 10.4645 59.7659 8.85181 62.9913 8.85181C66.4558 8.85181 69.0697 10.11 69.4419 13.6986H65.4457C65.4202 13.4212 65.34 13.1516 65.2097 12.9053C65.0793 12.6591 64.9015 12.4411 64.6865 12.264C64.4715 12.0868 64.2235 11.9541 63.9568 11.8733C63.6902 11.7926 63.4102 11.7655 63.133 11.7936H63.0001C61.6001 11.7936 60.7849 12.4493 60.7849 13.4062C60.7849 14.3632 61.5381 14.7797 63.8242 15.1075C67.7052 15.6923 69.8761 16.6759 69.8761 20.0164C69.8761 23.3569 67.4216 25.1467 63.3102 25.1467C59.1988 25.1467 56.5849 23.2948 56.4697 19.9189Z" fill="#FFD0A0"/>
<path d="M39.262 9.21514H43.5506V11.6873C44.034 10.7799 44.7677 10.0304 45.6646 9.52772C46.5614 9.02509 47.5838 8.79051 48.6101 8.85185C51.6493 8.85185 53.8556 10.7038 53.8556 14.9303V24.8632H49.6202V15.5506C49.6202 13.4329 48.7961 12.4227 46.8822 12.4227C46.4777 12.3875 46.0702 12.4325 45.6831 12.5552C45.296 12.6779 44.937 12.8758 44.6266 13.1376C44.3162 13.3995 44.0606 13.72 43.8744 14.0809C43.6883 14.4417 43.5752 14.8358 43.5417 15.2405C43.5196 15.4288 43.5196 15.6192 43.5417 15.8076V24.8278H39.262V9.21514Z" fill="#FFD0A0"/>
<path d="M30.986 5.28988C30.9705 4.86229 31.0822 4.4397 31.3069 4.07562C31.5317 3.71153 31.8595 3.42233 32.2487 3.24462C32.6379 3.06691 33.0711 3.00868 33.4934 3.07731C33.9158 3.14594 34.3082 3.33834 34.6212 3.63016C34.9341 3.92197 35.1534 4.30007 35.2513 4.71659C35.3492 5.13311 35.3213 5.56932 35.1712 5.96999C35.0211 6.37065 34.7554 6.71776 34.4079 6.96737C34.0604 7.21697 33.6466 7.35785 33.219 7.37216H33.1392C32.8738 7.38896 32.6077 7.35319 32.3561 7.2669C32.1046 7.18062 31.8725 7.04551 31.6733 6.86934C31.4741 6.69317 31.3116 6.4794 31.1952 6.24029C31.0788 6.00117 31.0107 5.74143 30.9949 5.47596C30.9875 5.41422 30.9846 5.35204 30.986 5.28988ZM30.986 9.2152H35.319V24.8279H31.0038L30.986 9.2152Z" fill="#FFD0A0"/>
<path d="M14.6558 3.49121H28.3545V7.27476H19.4937V12.9191H26.5115V16.5608H19.4849V24.8279H14.6558V3.49121Z" fill="#FFD0A0"/>
<path d="M6.38861 10.4734C6.38861 11.8114 6.38861 13.4418 4.54557 14.1063C6.43291 14.7532 6.38861 16.1266 6.38861 17.562V22.8785C6.38861 23.8886 6.7962 24.5 7.52279 24.6506C7.68244 24.7045 7.85064 24.7285 8.01899 24.7215H9.79114V28.2658H6.86709C3.7481 28.2658 2.02911 26.4937 2.02911 23.2063V16.9152C2.00699 16.5922 1.86458 16.2893 1.63 16.0662C1.39541 15.8431 1.08571 15.716 0.762025 15.7101H0V12.6H0.762025C1.09216 12.5956 1.40796 12.4644 1.64388 12.2334C1.87981 12.0024 2.01776 11.6895 2.02911 11.3595V4.97975C2.02911 1.74557 3.71266 0 6.86709 0H9.81772V3.49114H8.04557C7.87702 3.49163 7.70958 3.51854 7.54937 3.57089C6.82278 3.75696 6.41519 4.35949 6.41519 5.34304L6.38861 10.4734Z" fill="#FFD0A0"/>
</g>
<defs>
<clipPath id="clip0_546_154">
<rect width="140" height="28.3544" fill="white"/>
</clipPath>
</defs>
</svg>
